<svg xmlns="http://www.w3.org/2000/svg" width="375.001" height="586.999" viewBox="0 0 375.001 586.999">
  <path id="Subtraction_2" data-name="Subtraction 2" d="M3822.5,2273a288.232,288.232,0,0,1-52.367-4.79,285.2,285.2,0,0,1-94.584-35.78,291.187,291.187,0,0,1-40.55-29.3V1755.87a291.221,291.221,0,0,1,40.55-29.3,286,286,0,0,1,293.9,0,291.223,291.223,0,0,1,40.55,29.3v447.263a291.159,291.159,0,0,1-40.55,29.3A285.317,285.317,0,0,1,3822.5,2273Z" transform="translate(-3634.999 -1686.001)" fill="#f5f5f5" opacity="0.49"/>
</svg>
