<svg xmlns="http://www.w3.org/2000/svg" width="284" height="237.526" viewBox="0 0 284 237.526">
  <g id="Group_259" data-name="Group 259" transform="translate(-46 -137.558)">
    <ellipse id="Ellipse_159" data-name="Ellipse 159" cx="110.857" cy="18.806" rx="110.857" ry="18.806" transform="translate(76.285 337.161)" fill="#de5710" opacity="0.1"/>
    <g id="Group_258" data-name="Group 258" transform="translate(-288.854 -77.725)">
      <path id="Path_452" data-name="Path 452" d="M385.2,300.512c-32.192-6.778-56.723-30.6-70.942-68.882A199.455,199.455,0,0,1,302.7,178.063l-.552-10.915,86.071-30.423,86.072,30.423-.552,10.915a199.485,199.485,0,0,1-11.559,53.567c-14.219,38.285-38.749,62.1-70.941,68.882l-3.02.636Z" transform="translate(96.649 78.558)" fill="#a32932"/>
      <path id="Path_453" data-name="Path 453" d="M453.227,175.353l-68.173-24.1h0l-68.175,24.1s4.617,91.308,68.175,104.693h0C448.611,266.661,453.227,175.353,453.227,175.353Z" transform="translate(99.981 81.844)" fill="#ffb9bd"/>
      <path id="Path_454" data-name="Path 454" d="M372.339,253.174l56.706-8.1H478.9l44.555,8.724-76.647,38.635Z" transform="translate(84.89 123.997)" fill="#073a93"/>
      <path id="Path_455" data-name="Path 455" d="M483.577,289.476S383.251,234.327,371.411,252.4c-17.1,26.107,9.035,39.258,102.2,64.184Z" transform="translate(77.75 128.511)" fill="#01265b"/>
      <g id="Group_246" data-name="Group 246" transform="translate(550.452 420.592)">
        <path id="Path_456" data-name="Path 456" d="M452.777,293.191h0a11.757,11.757,0,0,0-6.366-15.361l-23.167-9.594-9,21.728,23.167,9.592A11.758,11.758,0,0,0,452.777,293.191Z" transform="translate(-414.249 -268.236)" fill="#b51a14"/>
        <path id="Path_457" data-name="Path 457" d="M420.992,269.811l17.528,7.258a7.967,7.967,0,1,1-6.1,14.721L414.9,284.532Z" transform="translate(-413.458 -266.308)" fill="#ff4642"/>
        <path id="Path_458" data-name="Path 458" d="M415.766,276.356l23.167,9.594a11.736,11.736,0,0,0,14.418-4.611,11.589,11.589,0,0,1-15.935,8.275l-23.167-9.592Z" transform="translate(-414.249 -258.294)" fill="#720803" opacity="0.45"/>
        <path id="Path_459" data-name="Path 459" d="M418.416,281.743l3.7-8.944a.89.89,0,0,1,1.159-.478h0a.886.886,0,0,1,.478,1.157l-3.7,8.942a.887.887,0,0,1-1.157.48h0A.888.888,0,0,1,418.416,281.743Z" transform="translate(-409.229 -263.317)" fill="#e5e6e1"/>
        <path id="Path_460" data-name="Path 460" d="M420.867,282.758l3.7-8.944a.888.888,0,0,1,1.157-.478h0a.888.888,0,0,1,.48,1.157l-3.7,8.944a.888.888,0,0,1-1.157.478h0A.889.889,0,0,1,420.867,282.758Z" transform="translate(-406.228 -262.074)" fill="#e5e6e1"/>
        <path id="Path_461" data-name="Path 461" d="M423.564,283.876l3.7-8.944a.891.891,0,0,1,1.157-.48h0a.891.891,0,0,1,.48,1.157l-3.7,8.944a.887.887,0,0,1-1.157.48h0A.887.887,0,0,1,423.564,283.876Z" transform="translate(-402.926 -260.707)" fill="#e5e6e1"/>
      </g>
      <path id="Path_462" data-name="Path 462" d="M507.271,263.216c-1.541-5.3-9.22-14.276-16.047-32.683-7.1-19.136-37.338-21.2-37.338-21.2l-11.74,6.284-11.74-6.284s-30.243,2.062-37.34,21.2c-6.824,18.407-14.5,27.382-16.047,32.683s6.789,39.6,30.705,44.456h68.844C500.483,302.816,508.815,268.514,507.271,263.216Z" transform="translate(90.402 80.24)" fill="#d44040"/>
      <g id="Group_247" data-name="Group 247" transform="translate(520.879 289.699)">
        <path id="Path_463" data-name="Path 463" d="M425.673,209.391V218.8s-2.171,10.506-12.405,12.254A15.972,15.972,0,0,1,400.954,218.8v-9.409Z" transform="translate(-400.954 -209.391)" fill="#f49290"/>
      </g>
      <g id="Group_248" data-name="Group 248" transform="translate(508.732 238.418)">
        <path id="Path_464" data-name="Path 464" d="M396.34,219.143s-3.5-21.986,4.865-24.657c2.278-.727.614-7.988,13.344-8.077,17.381-.122,31.077-2.458,28.794,33.036Z" transform="translate(-395.345 -186.337)" fill="#073a93"/>
        <path id="Path_465" data-name="Path 465" d="M407.5,205.481a6.006,6.006,0,1,0-6.006,6.006A6,6,0,0,0,407.5,205.481Z" transform="translate(-395.493 -170.248)" fill="#ffb5b1"/>
        <path id="Path_466" data-name="Path 466" d="M423.951,205.481a6.006,6.006,0,1,0-6.006,6.006A6,6,0,0,0,423.951,205.481Z" transform="translate(-375.357 -170.248)" fill="#ffb5b1"/>
        <path id="Path_467" data-name="Path 467" d="M437.174,202l-.031-.011v0h-.013c-.245-.078-5.036-1.671-5.952-7.972l-2.629.739a40.168,40.168,0,0,1-22.239-.211l-2.1-.527a9.539,9.539,0,0,1-6.217,7.972h-.049l-.167,9.732c0,5.663,2.391,12.545,6.219,17.842a16.73,16.73,0,0,0,26.935,0c3.828-5.3,6.217-12.178,6.217-17.842l-.007-9.689Z" transform="translate(-392.695 -176.939)" fill="#ffb5b1"/>
      </g>
      <rect id="Rectangle_1532" data-name="Rectangle 1532" width="76.023" height="50.682" rx="2.866" transform="translate(495.145 344.041)" fill="#ffb9bd"/>
      <circle id="Ellipse_156" data-name="Ellipse 156" cx="7.893" cy="7.893" r="7.893" transform="translate(525.03 360.969)" fill="#f7838c"/>
      <path id="Path_468" data-name="Path 468" d="M392.37,289.476S492.7,234.327,504.536,252.4c17.1,26.107-9.038,39.258-102.2,64.184Z" transform="translate(109.415 128.511)" fill="#01265b"/>
      <g id="Group_249" data-name="Group 249" transform="translate(473.234 420.592)">
        <path id="Path_469" data-name="Path 469" d="M380.432,293.191h0A11.755,11.755,0,0,1,386.8,277.83l23.165-9.594,9,21.728-23.167,9.592A11.758,11.758,0,0,1,380.432,293.191Z" transform="translate(-379.534 -268.236)" fill="#b51a14"/>
        <path id="Path_470" data-name="Path 470" d="M412.332,284.532,394.8,291.79a7.967,7.967,0,1,1-6.1-14.721l17.528-7.258Z" transform="translate(-374.343 -266.308)" fill="#ff4642"/>
        <path id="Path_471" data-name="Path 471" d="M417.265,276.356,394.1,285.95a11.736,11.736,0,0,1-14.418-4.611,11.6,11.6,0,0,0,.574,1.911,11.758,11.758,0,0,0,15.362,6.364l23.167-9.592Z" transform="translate(-379.356 -258.294)" fill="#720803" opacity="0.45"/>
        <path id="Path_472" data-name="Path 472" d="M396.1,281.743l-3.7-8.944a.887.887,0,0,0-1.157-.478h0a.886.886,0,0,0-.478,1.157l3.7,8.942a.885.885,0,0,0,1.157.48h0A.888.888,0,0,0,396.1,281.743Z" transform="translate(-365.865 -263.317)" fill="#e5e6e1"/>
        <path id="Path_473" data-name="Path 473" d="M393.653,282.758l-3.7-8.944a.888.888,0,0,0-1.157-.478h0a.886.886,0,0,0-.48,1.157l3.7,8.944a.888.888,0,0,0,1.157.478h0A.888.888,0,0,0,393.653,282.758Z" transform="translate(-368.867 -262.074)" fill="#e5e6e1"/>
        <path id="Path_474" data-name="Path 474" d="M390.958,283.876l-3.7-8.944a.891.891,0,0,0-1.157-.48h0a.887.887,0,0,0-.48,1.157l3.7,8.944a.887.887,0,0,0,1.157.48h0A.891.891,0,0,0,390.958,283.876Z" transform="translate(-372.169 -260.707)" fill="#e5e6e1"/>
      </g>
      <g id="Group_254" data-name="Group 254" transform="translate(334.854 248.951)">
        <g id="Group_252" data-name="Group 252">
          <g id="Group_250" data-name="Group 250" transform="translate(32.776 9.842)">
            <path id="Path_475" data-name="Path 475" d="M334.522,314.575s-26.579-42.432-18.353-48.58,16.291,18.829,20.5,14.823-14.663-39.687-5.752-47.361,8.246,18.382,15.813,23.222-4.1-35.508,4.96-41.811,13.417,13.769,13.417,13.769,10.041-39.954,23.543-32.122-20.7,48.06-12.67,46.681,16.28-14.957,23.247-5.808-38.657,32.442-31.344,31.844,20.273-9.672,22.522-1.586-37.02,22.671-32.952,25.469,24.595-13.053,27.831-1.384S342.674,322,334.522,314.575Z" transform="translate(-314.589 -195.497)" fill="#1a3a93"/>
            <path id="Path_476" data-name="Path 476" d="M322.1,322.767a138.678,138.678,0,0,0,12.294-26.677c1.682-4.951,3.116-10.076,4.507-15.032.634-2.258,1.266-4.516,1.924-6.764a327.577,327.577,0,0,1,30.756-71.956l.518.3a327.1,327.1,0,0,0-30.7,71.823c-.656,2.249-1.29,4.5-1.922,6.758-1.39,4.965-2.829,10.1-4.515,15.063a139.442,139.442,0,0,1-12.348,26.795Z" transform="translate(-305.394 -187.121)" fill="#dfe0ff"/>
            <path id="Path_477" data-name="Path 477" d="M338.506,236.947a.3.3,0,0,1-.113-.156,135.813,135.813,0,0,1-6.01-28.158.3.3,0,0,1,.6-.06,135.426,135.426,0,0,0,5.981,28.034.3.3,0,0,1-.191.378A.311.311,0,0,1,338.506,236.947Z" transform="translate(-292.804 -179.815)" fill="#dfe0ff"/>
            <path id="Path_478" data-name="Path 478" d="M333.527,237.16a.358.358,0,0,1-.073-.069.3.3,0,0,1,.067-.418c8.239-6.019,16.758-12.243,25.892-17.217a22.743,22.743,0,0,1,5.439-2.318.3.3,0,0,1,.14.581,22.3,22.3,0,0,0-5.294,2.264c-9.1,4.954-17.6,11.166-25.825,17.172A.3.3,0,0,1,333.527,237.16Z" transform="translate(-291.56 -169.009)" fill="#dfe0ff"/>
            <path id="Path_479" data-name="Path 479" d="M339.832,254.142a.342.342,0,0,1-.08-.08,121.03,121.03,0,0,1-11.037-19.77,153.178,153.178,0,0,1-5.316-15.878.3.3,0,1,1,.574-.169,152.906,152.906,0,0,0,5.294,15.815,120.385,120.385,0,0,0,10.984,19.668.3.3,0,0,1-.418.414Z" transform="translate(-303.817 -167.907)" fill="#dfe0ff"/>
            <path id="Path_480" data-name="Path 480" d="M330.811,239.558a.3.3,0,0,1,.271-.527,5.109,5.109,0,0,0,2.685.018,45.3,45.3,0,0,0,7.1-2.2c.429-.16.856-.318,1.286-.474,6.789-2.48,13.876-4.371,20.731-6.2a.3.3,0,0,1,.154.578c-6.84,1.826-13.916,3.713-20.68,6.182l-1.281.474a45.51,45.51,0,0,1-7.2,2.229,5.73,5.73,0,0,1-3-.042A.241.241,0,0,1,330.811,239.558Z" transform="translate(-294.885 -153.052)" fill="#dfe0ff"/>
            <path id="Path_481" data-name="Path 481" d="M339.833,262.483c-7.943-5.463-17.048-20.182-22.43-31.128a.3.3,0,0,1,.536-.262c5.352,10.879,14.385,25.5,22.233,30.9a.3.3,0,1,1-.338.494Z" transform="translate(-311.182 -152.12)" fill="#dfe0ff"/>
            <path id="Path_482" data-name="Path 482" d="M327.875,249.838c-.071-.049-.14-.1-.209-.158a.3.3,0,0,1,.38-.463c1.123.91,2.807.625,4.464.171l28.99-7.939a.3.3,0,1,1,.158.576l-28.99,7.939C330.949,250.436,329.187,250.739,327.875,249.838Z" transform="translate(-298.711 -139.246)" fill="#dfe0ff"/>
          </g>
          <g id="Group_251" data-name="Group 251">
            <path id="Path_483" data-name="Path 483" d="M349.033,319.216s-46-19.93-42.708-29.671,24.128,6.293,25.324.6-34.616-24.426-31.617-35.815,17.232,10.49,26.223,10.19-23.527-26.973-19.63-37.314,18.88,3.748,18.88,3.748-14.385-38.662,1.2-39.861,10.19,51.4,16.035,45.7,4.945-21.579,15.884-17.982-13.486,48.7-7.792,44.056,11.237-19.481,17.682-14.085S350.832,288.5,355.777,288.5s12.888-24.726,22.177-16.932S359.972,320.715,349.033,319.216Z" transform="translate(-299.854 -191.072)" fill="#689aff"/>
            <path id="Path_484" data-name="Path 484" d="M340.134,325.823a138.835,138.835,0,0,0-5-28.986c-1.421-5.04-3.143-10.085-4.809-14.961-.758-2.222-1.517-4.442-2.251-6.673a327.875,327.875,0,0,1-15.45-76.821l.6-.047a327.5,327.5,0,0,0,15.422,76.681c.734,2.227,1.493,4.446,2.251,6.666,1.668,4.885,3.392,9.936,4.82,14.99a139.6,139.6,0,0,1,5.016,29.113Z" transform="translate(-284.215 -182.179)" fill="#dfe0ff"/>
            <path id="Path_485" data-name="Path 485" d="M327.382,230.346a.313.313,0,0,1-.182-.06,136.054,136.054,0,0,1-20.934-19.826.3.3,0,1,1,.456-.387,135.475,135.475,0,0,0,20.842,19.735.3.3,0,0,1,.056.42A.294.294,0,0,1,327.382,230.346Z" transform="translate(-292.09 -167.938)" fill="#dfe0ff"/>
            <path id="Path_486" data-name="Path 486" d="M317.311,243.1a.311.311,0,0,1-.1-.016.3.3,0,0,1-.182-.383c3.383-9.64,6.88-19.61,11.593-28.895a22.9,22.9,0,0,1,3.172-5,.3.3,0,0,1,.425-.022.3.3,0,0,1,.022.423,22.219,22.219,0,0,0-3.083,4.871c-4.7,9.249-8.188,19.2-11.564,28.821A.3.3,0,0,1,317.311,243.1Z" transform="translate(-278.847 -169.479)" fill="#dfe0ff"/>
            <path id="Path_487" data-name="Path 487" d="M338.234,243.781a.317.317,0,0,1-.111-.02,121.158,121.158,0,0,1-20.326-10.05,154.025,154.025,0,0,1-13.4-10.083.3.3,0,0,1-.042-.423.3.3,0,0,1,.42-.042,153.413,153.413,0,0,0,13.342,10.045,120.775,120.775,0,0,0,20.224,10,.3.3,0,0,1-.111.576Z" transform="translate(-294.42 -151.863)" fill="#dfe0ff"/>
            <path id="Path_488" data-name="Path 488" d="M319.752,246.855a.3.3,0,0,1-.076-.589,5.114,5.114,0,0,0,2.227-1.51,45.088,45.088,0,0,0,4.607-5.843c.265-.374.527-.747.792-1.121,4.2-5.9,8.971-11.478,13.586-16.876a.3.3,0,0,1,.456.389c-4.609,5.387-9.374,10.959-13.555,16.834L327,239.257a45.526,45.526,0,0,1-4.673,5.921,5.728,5.728,0,0,1-2.5,1.668A.292.292,0,0,1,319.752,246.855Z" transform="translate(-275.858 -154.661)" fill="#dfe0ff"/>
            <path id="Path_489" data-name="Path 489" d="M342.967,250.664c-9.654,0-25.518-6.978-36.17-12.955a.3.3,0,0,1,.3-.523c10.588,5.941,26.336,12.877,35.875,12.877a.3.3,0,1,1,0,.6Z" transform="translate(-291.539 -134.658)" fill="#dfe0ff"/>
            <path id="Path_490" data-name="Path 490" d="M323.519,257.548c-.087,0-.173,0-.262-.013a.3.3,0,0,1-.274-.323.306.306,0,0,1,.325-.274c1.444.111,2.672-1.077,3.781-2.391l19.414-23a.3.3,0,1,1,.458.385l-19.414,23C326.395,256.3,325.111,257.548,323.519,257.548Z" transform="translate(-271.537 -141.645)" fill="#dfe0ff"/>
          </g>
        </g>
        <g id="Group_253" data-name="Group 253" transform="translate(21.492 122.163)">
          <path id="Path_491" data-name="Path 491" d="M312.81,251.872l7.345,45.464a13.312,13.312,0,0,0,13.139,11.186h22.382a13.312,13.312,0,0,0,13.139-11.186l7.345-45.464Z" transform="translate(-305.483 -238.793)" fill="#ffb9bd"/>
          <path id="Path_492" data-name="Path 492" d="M376.16,251.872H312.81l1.017,6.3h48.84l-6.328,39.165A13.31,13.31,0,0,1,343.2,308.522h12.477a13.31,13.31,0,0,0,13.139-11.186l6.328-39.165h0Z" transform="translate(-305.483 -238.793)" fill="#e5a7ad"/>
          <path id="Path_493" data-name="Path 493" d="M380.9,245.992H316.136a6.64,6.64,0,0,0-6.62,6.62h0a6.639,6.639,0,0,0,6.62,6.62H380.9a6.639,6.639,0,0,0,6.62-6.62h0A6.64,6.64,0,0,0,380.9,245.992Z" transform="translate(-309.516 -245.992)" fill="#ffb9bd"/>
        </g>
      </g>
      <g id="Group_257" data-name="Group 257" transform="translate(343.334 218.023)">
        <rect id="Rectangle_1533" data-name="Rectangle 1533" width="113.895" height="35.18" rx="3.02" fill="#ffbd70"/>
        <g id="Group_255" data-name="Group 255" transform="translate(8.255 4.948)">
          <rect id="Rectangle_1534" data-name="Rectangle 1534" width="18.611" height="14.13" rx="1.255" transform="translate(0 10.816)" fill="#073a93"/>
          <path id="Path_494" data-name="Path 494" d="M329.844,155.289H328.09v-2.781a4.682,4.682,0,0,0-9.365,0v2.781h-1.756v-2.781a6.437,6.437,0,0,1,12.875,0Z" transform="translate(-314.102 -146.072)" fill="#073a93"/>
          <path id="Path_495" data-name="Path 495" d="M323.436,156.015a1.963,1.963,0,1,0-2.931,1.7l-.678,3.868h3.292l-.678-3.868A1.953,1.953,0,0,0,323.436,156.015Z" transform="translate(-312.167 -139.998)" fill="#ffaa45"/>
        </g>
        <g id="Group_256" data-name="Group 256" transform="translate(44.266 15.423)">
          <circle id="Ellipse_157" data-name="Ellipse 157" cx="3.22" cy="3.22" r="3.22" fill="#073a93"/>
          <circle id="Ellipse_158" data-name="Ellipse 158" cx="3.22" cy="3.22" r="3.22" transform="translate(12.291)" fill="#073a93"/>
          <path id="Path_496" data-name="Path 496" d="M356.185,155.24a3.221,3.221,0,1,1-3.22-3.22A3.221,3.221,0,0,1,356.185,155.24Z" transform="translate(-325.162 -152.02)" fill="#073a93"/>
          <path id="Path_497" data-name="Path 497" d="M363.164,155.24a3.221,3.221,0,1,1-3.221-3.22A3.222,3.222,0,0,1,363.164,155.24Z" transform="translate(-319.849 -152.02)" fill="#073a93"/>
          <path id="Path_498" data-name="Path 498" d="M370.141,155.24a3.22,3.22,0,1,1-3.22-3.22A3.22,3.22,0,0,1,370.141,155.24Z" transform="translate(-314.536 -152.02)" fill="#073a93"/>
        </g>
      </g>
    </g>
  </g>
</svg>
